<svg id="Ebene_1" data-name="Ebene 1" xmlns="http://www.w3.org/2000/svg" viewBox="0 0 70 70"><defs><style>.cls-1,.cls-2,.cls-3{fill:none;stroke:#666;stroke-miterlimit:10;}.cls-1{stroke-width:2px;}.cls-3,.cls-4{fill-rule:evenodd;}.cls-4{fill:#e2001a;}</style></defs><rect class="cls-1" x="5.65" y="3" width="58.7" height="64" rx="6.8"/><circle class="cls-2" cx="35.03" cy="29.61" r="11"/><circle class="cls-2" cx="15" cy="40" r="4"/><path class="cls-3" d="M40.19,52H36.73a2,2,0,0,0-3.46,0H29.81a1.08,1.08,0,1,0,0,2.15h3.46a2,2,0,0,0,3.46,0h3.46a1.08,1.08,0,1,0,0-2.15Z"/><path class="cls-4" d="M34.89,61.87c-3.24,0-5.87-.73-5.87-1.62s2.63-1.64,5.87-1.64,5.87.74,5.87,1.64S38.13,61.87,34.89,61.87Z"/><line class="cls-2" x1="5.07" y1="53.08" x2="28.73" y2="53.08"/><line class="cls-2" x1="41.27" y1="53.08" x2="64.93" y2="53.08"/></svg>